<svg width="20" height="27" viewBox="0 0 20 27" fill="none" xmlns="http://www.w3.org/2000/svg">
<path d="M17.8437 7.9418C18.4948 7.28262 18.4948 6.21211 17.8437 5.55293C17.1927 4.89375 16.1354 4.89375 15.4844 5.55293L9.99999 11.1111L4.51041 5.55821C3.85936 4.89903 2.80207 4.89903 2.15103 5.55821C1.49999 6.21739 1.49999 7.28789 2.15103 7.94707L7.64061 13.5L2.15624 19.0582C1.5052 19.7174 1.5052 20.7879 2.15624 21.4471C2.80728 22.1063 3.86457 22.1063 4.51561 21.4471L9.99999 15.8889L15.4896 21.4418C16.1406 22.101 17.1979 22.101 17.8489 21.4418C18.5 20.7826 18.5 19.7121 17.8489 19.0529L12.3594 13.5L17.8437 7.9418Z" fill="#676767"/>
</svg>
